<svg width="99" height="64" viewBox="0 0 99 64" fill="none" xmlns="http://www.w3.org/2000/svg">
<path d="M50.5781 11.4844C50.5781 12.5781 50.375 13.6406 49.9688 14.6719C49.5625 15.6719 49.2656 16.7031 49.0781 17.7656C48.3906 18.6719 47.75 19.6094 47.1562 20.5781C46.5625 21.5469 45.9531 22.5156 45.3281 23.4844C44.7031 24.4531 44.0469 25.3906 43.3594 26.2969C42.6719 27.1719 41.8906 27.9688 41.0156 28.6875C41.0469 28.7188 41.0625 28.7812 41.0625 28.875C41.0625 29.0625 40.9688 29.2188 40.7812 29.3438C40.625 29.4375 40.5781 29.5625 40.6406 29.7188C39.8594 30.5312 39.0938 31.3281 38.3438 32.1094C37.5938 32.8906 36.9062 33.7656 36.2812 34.7344C35.5938 35.0781 35.0312 35.6406 34.5938 36.4219C34.4062 36.4219 34.2656 36.4688 34.1719 36.5625C34.0781 36.625 33.9531 36.6875 33.7969 36.75C32.7969 37.9688 31.75 39.125 30.6562 40.2188C29.5625 41.3125 28.3906 42.3125 27.1406 43.2188C26.6719 43.5625 26.2031 43.875 25.7344 44.1562C25.2656 44.4375 24.8125 44.7344 24.375 45.0469C24.0938 45.2344 23.8125 45.4531 23.5312 45.7031C23.2812 45.9531 23.0156 46.1875 22.7344 46.4062C21.8281 47.1875 20.9375 47.8438 20.0625 48.375C19.1875 48.875 18.1562 49.2188 16.9688 49.4062C16.875 49.75 16.8281 50.125 16.8281 50.5312V51.6562C16.8281 52.0312 16.8125 52.4219 16.7812 52.8281C16.75 53.2031 16.6406 53.5625 16.4531 53.9062V54.0469C16.4531 54.3594 16.5312 54.6562 16.6875 54.9375C16.8438 55.25 16.9219 55.5625 16.9219 55.875C16.9219 56.0938 16.8125 56.2812 16.5938 56.4375H17.8125C17.8125 56.875 17.9375 57.25 18.1875 57.5625C18.4688 57.875 18.6094 58.1094 18.6094 58.2656C18.6094 58.7969 18.5469 59.375 18.4219 60C18.3281 60.6562 18.0156 61.0938 17.4844 61.3125V61.5938C17.4844 61.9062 17.4531 62.2031 17.3906 62.4844C17.3281 62.7969 17.1875 63.0938 16.9688 63.375C16.7812 63.375 16.5938 63.375 16.4062 63.375C16.25 63.4062 16.0938 63.4219 15.9375 63.4219C14.625 63.4219 13.4531 63.1094 12.4219 62.4844C12.0781 61.6719 11.8438 60.8281 11.7188 59.9531C11.625 59.1094 11.5781 58.25 11.5781 57.375C11.5781 55.6562 11.7031 53.9531 11.9531 52.2656C12.2031 50.5781 12.4062 48.8906 12.5625 47.2031L13.2656 45.8438C13.3281 44.9688 13.4375 44.0938 13.5938 43.2188C13.75 42.3125 13.9062 41.4219 14.0625 40.5469C14.2188 39.6719 14.3438 38.7969 14.4375 37.9219C14.5625 37.0469 14.6094 36.1719 14.5781 35.2969C14.8281 34.7656 15 34.2031 15.0938 33.6094C15.2188 33.0156 15.2812 32.4375 15.2812 31.875C15.2812 31.5625 15.2656 31.25 15.2344 30.9375C15.2031 30.625 15.1094 30.3281 14.9531 30.0469C15.1406 29.9219 15.2656 29.7656 15.3281 29.5781C15.3906 29.3906 15.4844 29.2188 15.6094 29.0625C15.7031 27.8438 15.7812 26.6406 15.8438 25.4531C15.9062 24.2344 15.9375 23.0312 15.9375 21.8438C15.9375 21.1875 15.9219 20.5469 15.8906 19.9219C15.8594 19.2656 15.8125 18.6094 15.75 17.9531C15.7188 17.7031 15.6562 17.4062 15.5625 17.0625C15.5 16.7188 15.4688 16.4531 15.4688 16.2656C15.4688 16.0156 15.4844 15.7656 15.5156 15.5156C15.5469 15.2344 15.5625 14.9531 15.5625 14.6719C15.5625 14.3594 15.5312 14.0625 15.4688 13.7812C15.4062 13.4688 15.2969 13.1875 15.1406 12.9375C13.6406 13.375 12.2969 13.9688 11.1094 14.7188C9.92188 15.4375 8.71875 16.25 7.5 17.1562C7 17.5 6.45312 17.9062 5.85938 18.375C5.26562 18.8438 4.70312 19.2031 4.17188 19.4531C4.07812 19.5156 3.96875 19.5625 3.84375 19.5938C3.6875 19.5938 3.5625 19.5938 3.46875 19.5938C3.125 19.5938 2.8125 19.5781 2.53125 19.5469C2.25 19.4844 1.96875 19.4531 1.6875 19.4531C1.25 19.0156 0.734375 18.6719 0.140625 18.4219C0.046875 18.0469 0 17.6406 0 17.2031C0 16.7656 0.046875 16.3438 0.140625 15.9375C0.203125 15.5313 0.3125 15.125 0.46875 14.7188C0.84375 14.5938 1.25 14.4531 1.6875 14.2969C2.09375 14.1406 2.5 13.9688 2.90625 13.7812C3.28125 13.5625 3.625 13.3281 3.9375 13.0781C4.25 12.7969 4.5 12.4531 4.6875 12.0469C4.875 12.1406 5.04688 12.1875 5.20312 12.1875C5.35938 12.1875 5.5 12.1719 5.625 12.1406C5.75 12.1094 5.89062 12.0781 6.04688 12.0469C6.60938 11.7031 7.17188 11.3438 7.73438 10.9688C8.32812 10.5938 8.9375 10.2813 9.5625 10.0312C9.75 9.96875 9.85938 9.89062 9.89062 9.79688C9.92188 9.70312 9.92188 9.5625 9.89062 9.375C10.6094 9.15625 11.3594 8.90625 12.1406 8.625C12.9219 8.3125 13.5781 7.89063 14.1094 7.35938H14.9531C15.4219 7.01562 15.9219 6.73437 16.4531 6.51562C16.9844 6.29688 17.5156 6.09375 18.0469 5.90625C18.6094 5.6875 19.1562 5.46875 19.6875 5.25C20.2188 5 20.7188 4.6875 21.1875 4.3125C21.375 4.25 21.5312 4.21875 21.6562 4.21875C21.8125 4.21875 21.9844 4.25 22.1719 4.3125C22.4844 4.15625 22.75 3.96875 22.9688 3.75L23.7188 3C24.2188 3 24.6719 2.95312 25.0781 2.85938C25.4844 2.76562 25.875 2.64062 26.25 2.48438C26.625 2.32813 26.9844 2.15625 27.3281 1.96875C27.7031 1.75 28.1094 1.53125 28.5469 1.3125C28.7344 1.375 28.875 1.45312 28.9688 1.54688C29.0625 1.60937 29.2188 1.64062 29.4375 1.64062C29.75 1.42187 30.0781 1.26562 30.4219 1.17188C30.7969 1.04687 31.1719 0.953125 31.5469 0.890625C31.9219 0.828125 32.2812 0.75 32.625 0.65625C33 0.5625 33.3281 0.390625 33.6094 0.140625C34.6094 0.140625 35.6094 0.125 36.6094 0.09375C37.6406 0.03125 38.6562 0 39.6562 0C41.0938 0 42.5469 0.109375 44.0156 0.328125C45.5156 0.546875 46.8594 1.09375 48.0469 1.96875C48.5156 3.09375 49.1875 4.04687 50.0625 4.82812C50.125 5.17187 50.1875 5.5 50.25 5.8125C50.3438 6.09375 50.4531 6.375 50.5781 6.65625C50.3594 7.125 50.25 7.64062 50.25 8.20312C50.25 8.76562 50.2969 9.32812 50.3906 9.89062C50.5156 10.4219 50.5781 10.9531 50.5781 11.4844ZM46.2188 10.3594C46.0625 10.0781 45.9531 9.76563 45.8906 9.42188C45.8594 9.04688 45.8594 8.6875 45.8906 8.34375C45.4844 8.03125 45.1719 7.625 44.9531 7.125C44.7344 6.625 44.4219 6.25 44.0156 6C43.7344 5.84375 43.3281 5.75 42.7969 5.71875C42.2969 5.6875 41.875 5.625 41.5312 5.53125C41.125 5.40625 40.8438 5.28125 40.6875 5.15625C40.5625 5.03125 40.2812 4.96875 39.8438 4.96875C39.4688 4.96875 39.0938 5.01562 38.7188 5.10938C38.3438 5.17187 37.9688 5.20312 37.5938 5.20312C37.2812 5.20312 36.9844 5.14063 36.7031 5.01562C36.4219 4.89062 36.125 4.82812 35.8125 4.82812C35.4688 4.82812 35.1406 4.9375 34.8281 5.15625C34.5469 5.375 34.2031 5.4375 33.7969 5.34375C33.6094 5.5 33.5 5.625 33.4688 5.71875C33.4688 5.8125 33.4531 5.89063 33.4219 5.95312C33.3906 5.98437 33.3125 6 33.1875 6H32.5312C31.875 6 31.2031 6.09375 30.5156 6.28125C29.8594 6.46875 29.2656 6.78125 28.7344 7.21875C28.6406 7.1875 28.5469 7.17188 28.4531 7.17188C28.3906 7.14063 28.3125 7.125 28.2188 7.125C27.6875 7.125 27.1719 7.28125 26.6719 7.59375C26.2031 7.875 25.6719 8.01562 25.0781 8.01562C24.7031 8.39062 24.25 8.6875 23.7188 8.90625C23.1875 9.125 22.6406 9.34375 22.0781 9.5625C21.5469 9.75 21.0469 9.98438 20.5781 10.2656C20.1094 10.5156 19.75 10.8906 19.5 11.3906C19.4688 11.6406 19.5469 11.7969 19.7344 11.8594C19.9219 11.9219 20.0156 12.0781 20.0156 12.3281C20.0156 12.5469 19.9688 12.8125 19.875 13.125C19.8125 13.4375 19.7812 13.75 19.7812 14.0625C19.7812 14.7813 19.8594 15.4844 20.0156 16.1719C20.1719 16.8594 20.3281 17.5625 20.4844 18.2812C20.3281 18.375 20.2188 18.5156 20.1562 18.7031C20.0938 18.8906 19.9844 19.0312 19.8281 19.125C20.2656 20.4375 20.4844 21.7812 20.4844 23.1562C20.4844 24.25 20.3594 25.3281 20.1094 26.3906C19.8906 27.4219 19.7344 28.4844 19.6406 29.5781V29.625C19.6406 29.8125 19.7031 29.9375 19.8281 30C19.9531 30.0625 20.0156 30.1719 20.0156 30.3281C20.0156 30.4219 20 30.5 19.9688 30.5625C19.625 32.6875 19.2812 34.8125 18.9375 36.9375C18.625 39.0625 18.3594 41.2031 18.1406 43.3594H18.5156C19.3281 43.3594 20.0469 43.125 20.6719 42.6562C21.3281 42.1562 21.875 41.6094 22.3125 41.0156H23.0625C25.3125 39.0469 27.4688 37.0156 29.5312 34.9219C31.625 32.8281 33.6094 30.5781 35.4844 28.1719C35.7344 28.1719 35.9062 28.1094 36 27.9844C36.0938 27.8594 36.25 27.7656 36.4688 27.7031C37.125 26.7969 37.8125 25.9062 38.5312 25.0312C39.25 24.125 40.0312 23.2656 40.875 22.4531C40.9062 22.1406 40.9844 21.8594 41.1094 21.6094C41.2656 21.3594 41.4219 21.125 41.5781 20.9062C41.7344 20.6875 41.875 20.4531 42 20.2031C42.125 19.9531 42.1875 19.6562 42.1875 19.3125C42.3438 19.25 42.5156 19.1875 42.7031 19.125C42.8906 19.0312 43.0625 18.9062 43.2188 18.75C43.2812 18.4375 43.3906 18.1562 43.5469 17.9062C43.7031 17.6562 43.7812 17.375 43.7812 17.0625C43.7812 16.9375 43.75 16.7812 43.6875 16.5938C44.1875 16.375 44.5781 16.0156 44.8594 15.5156C45.1406 15.0156 45.3594 14.4687 45.5156 13.875C45.6719 13.25 45.7812 12.625 45.8438 12C45.9375 11.375 46.0625 10.8281 46.2188 10.3594Z" fill="#20261C"/>
<path d="M98.4375 26.3906C98.4375 26.8906 98.3438 27.4062 98.1562 27.9375C98 28.4688 97.7969 28.9531 97.5469 29.3906C97.1406 29.4531 96.7656 29.5938 96.4219 29.8125C96.1094 30.0312 95.8594 30.1719 95.6719 30.2344C95.2656 30.2969 94.7812 30.3281 94.2188 30.3281C93.6875 30.2969 93.2031 30.2969 92.7656 30.3281C91.9219 30.3906 91.0781 30.4844 90.2344 30.6094C89.4219 30.7344 88.6094 30.8906 87.7969 31.0781C87.7344 31.0781 87.6719 31.0938 87.6094 31.125C87.5469 31.125 87.5156 31.1562 87.5156 31.2188C87.5156 31.2812 87.5312 31.3438 87.5625 31.4062C87.5938 31.4688 87.6094 31.5312 87.6094 31.5938C87.6094 31.6875 87.5156 31.7344 87.3281 31.7344C86.9844 31.7344 86.75 31.625 86.625 31.4062C85.625 31.6562 84.625 31.9219 83.625 32.2031C82.625 32.4531 81.625 32.7031 80.625 32.9531C80.125 33.0469 79.625 33.1406 79.125 33.2344C78.6562 33.3281 78.1719 33.4531 77.6719 33.6094C77.4219 33.6719 77.1719 33.7812 76.9219 33.9375L76.1719 34.4062C76.0156 34.375 75.875 34.3594 75.75 34.3594C75.625 34.3281 75.5 34.3125 75.375 34.3125C74.8438 34.3125 74.2812 34.4219 73.6875 34.6406C73.0938 34.8281 72.5781 35.0938 72.1406 35.4375H71.8125C71.5 35.4375 71.2812 35.3906 71.1562 35.2969C70.875 35.2656 70.7031 35.3594 70.6406 35.5781C70.5781 35.7656 70.4688 35.9375 70.3125 36.0938C69.25 36.1875 68.2031 36.375 67.1719 36.6562C66.1406 36.9375 65.125 37.25 64.125 37.5938C63.125 37.9062 62.1094 38.2344 61.0781 38.5781C60.0781 38.8906 59.0625 39.1406 58.0312 39.3281C57.9062 39.9531 57.8438 40.6719 57.8438 41.4844C57.8438 42.1094 57.8906 42.8281 57.9844 43.6406C58.1094 44.4531 58.3594 45.1406 58.7344 45.7031V45.7969C58.7344 45.9531 58.6719 46.0625 58.5469 46.125C58.4219 46.1875 58.3594 46.2969 58.3594 46.4531C58.3594 47.2656 58.4375 48.0312 58.5938 48.75C58.7812 49.4688 58.9688 50.1719 59.1562 50.8594C59.3438 51.5469 59.5156 52.2344 59.6719 52.9219C59.8594 53.6094 59.9531 54.3125 59.9531 55.0312C59.9531 55.2188 59.9375 55.3906 59.9062 55.5469C59.9062 55.7344 59.8906 55.9219 59.8594 56.1094C59.9531 56.3906 60.1094 56.625 60.3281 56.8125C60.5469 57 60.7344 57.2188 60.8906 57.4688C60.9219 57.625 60.9375 57.7656 60.9375 57.8906V58.3594C60.9375 58.8906 60.875 59.3594 60.75 59.7656C60.625 60.1719 60.4688 60.5469 60.2812 60.8906C60.0938 61.2656 59.8906 61.625 59.6719 61.9688C59.4531 62.3438 59.25 62.75 59.0625 63.1875C58.75 63.25 58.5 63.2812 58.3125 63.2812C57.8438 63.2812 57.4531 63.1562 57.1406 62.9062C56.8594 62.6562 56.6094 62.3438 56.3906 61.9688C56.1719 61.625 55.9531 61.2656 55.7344 60.8906C55.5469 60.5156 55.3125 60.2031 55.0312 59.9531C55.0625 59.7969 55.0781 59.6562 55.0781 59.5312C55.1094 59.4062 55.125 59.2656 55.125 59.1094C55.125 58.4844 55.0156 57.875 54.7969 57.2812C54.6094 56.6875 54.3906 56.125 54.1406 55.5938C54.1094 54.5312 54 53.4844 53.8125 52.4531C53.625 51.4219 53.3594 50.4062 53.0156 49.4062C53.0781 49.0312 53.125 48.6719 53.1562 48.3281C53.1875 47.9531 53.2031 47.5938 53.2031 47.25C53.2031 46.3438 53.1562 45.4375 53.0625 44.5312C52.9688 43.625 52.9531 42.7188 53.0156 41.8125C52.9219 41.6562 52.8281 41.5312 52.7344 41.4375C52.6406 41.3125 52.5625 41.1719 52.5 41.0156H52.3125C51.8438 41.0156 51.3906 41.0625 50.9531 41.1562C50.5156 41.2188 50.0781 41.25 49.6406 41.25C49.4844 41.25 49.3438 41.25 49.2188 41.25C49.0938 41.2188 48.9531 41.1875 48.7969 41.1562C48.4531 40.8125 48.1875 40.4219 48 39.9844C47.8125 39.5469 47.7188 39.0938 47.7188 38.625C47.7188 37.9375 47.9062 37.3125 48.2812 36.75C49.0625 36.5625 49.8281 36.3438 50.5781 36.0938C51.3594 35.8125 52.1094 35.4844 52.8281 35.1094C52.9219 34.6406 52.9688 34.1719 52.9688 33.7031C53 33.2344 53.1719 32.7969 53.4844 32.3906C53.3906 32.1406 53.2344 31.9219 53.0156 31.7344C52.8281 31.5156 52.7344 31.2656 52.7344 30.9844C52.7344 30.8281 52.7656 30.625 52.8281 30.375C53.1406 30.0312 53.3594 29.5938 53.4844 29.0625C53.6094 28.5312 53.7188 27.9688 53.8125 27.375C53.9062 26.7812 54 26.1875 54.0938 25.5938C54.2188 25 54.4219 24.4688 54.7031 24C54.6406 23.75 54.5938 23.4844 54.5625 23.2031C54.5312 22.8906 54.5156 22.6094 54.5156 22.3594C54.5156 21.9844 54.5312 21.6094 54.5625 21.2344C54.625 20.8281 54.7188 20.4531 54.8438 20.1094C54.5 19.7031 54.2188 19.2344 54 18.7031C53.7812 18.1406 53.6719 17.5938 53.6719 17.0625C53.6719 16.0312 54.1719 15.375 55.1719 15.0938C55.1406 14.9688 55.1094 14.8594 55.0781 14.7656C55.0781 14.6719 55.0781 14.5781 55.0781 14.4844C55.0781 14.2031 55.1562 13.9375 55.3125 13.6875C55.4688 13.4375 55.5938 13.1875 55.6875 12.9375C55.5312 12.5313 55.4531 12.1875 55.4531 11.9062C55.4531 11.6562 55.5 11.4375 55.5938 11.25C55.6875 11.0313 55.7656 10.7969 55.8281 10.5469C55.9219 10.2344 55.9844 9.95313 56.0156 9.70312C56.0781 9.45312 56.1719 9.23438 56.2969 9.04688C56.4219 8.85938 56.5781 8.71875 56.7656 8.625C56.9844 8.53125 57.3125 8.48438 57.75 8.48438C58.4375 8.48438 59.0938 8.70312 59.7188 9.14062C60.375 9.54687 60.875 10.0156 61.2188 10.5469C61.5625 10.5156 61.8594 10.4531 62.1094 10.3594C62.3906 10.2344 62.6406 10.125 62.8594 10.0312C63.1094 9.9375 63.3594 9.85938 63.6094 9.79688C63.8906 9.70312 64.2188 9.67188 64.5938 9.70312C64.6875 9.48438 64.8438 9.34375 65.0625 9.28125C65.3125 9.1875 65.5625 9.125 65.8125 9.09375C66.0625 9.03125 66.2969 8.95312 66.5156 8.85938C66.7344 8.76562 66.875 8.59375 66.9375 8.34375C67.0625 8.4375 67.2031 8.48438 67.3594 8.48438C67.5156 8.48438 67.6719 8.46875 67.8281 8.4375C67.9844 8.375 68.1562 8.34375 68.3438 8.34375C68.5312 8.34375 68.6875 8.40625 68.8125 8.53125C69.625 8.09375 70.4844 7.78125 71.3906 7.59375C72.3281 7.375 73.25 7.25 74.1562 7.21875C76.3125 6.03125 78.5781 5.21875 80.9531 4.78125C83.3594 4.34375 85.7656 4.125 88.1719 4.125C88.5156 4.125 88.8438 4.125 89.1562 4.125C89.5 4.09375 89.8281 4.10938 90.1406 4.17188C90.4844 4.23437 90.8594 4.34375 91.2656 4.5C91.7031 4.65625 92.125 4.84375 92.5312 5.0625C92.9688 5.28125 93.375 5.53125 93.75 5.8125C94.125 6.0625 94.4375 6.29688 94.6875 6.51562C94.9375 7.07812 95.0625 7.625 95.0625 8.15625C95.0625 8.40625 95.0469 8.65625 95.0156 8.90625C94.9844 9.125 94.9688 9.35937 94.9688 9.60938C94.9688 9.98438 95.0469 10.4062 95.2031 10.875C95.1094 10.8438 94.9531 10.8281 94.7344 10.8281C94.4531 10.8281 94.2188 10.8906 94.0312 11.0156C93.8438 11.1406 93.6719 11.2812 93.5156 11.4375C93.3594 11.5938 93.2031 11.7344 93.0469 11.8594C92.9219 11.9844 92.7969 12.0469 92.6719 12.0469C92.4219 12.0469 92.2031 12 92.0156 11.9062C91.8594 11.8125 91.6875 11.7188 91.5 11.625C91.3438 11.5 91.1719 11.4063 90.9844 11.3438C90.7969 11.25 90.5781 11.2188 90.3281 11.25V11.0625C90.3281 10.7187 90.2188 10.5 90 10.4062C89.7812 10.2813 89.6094 10.1094 89.4844 9.89062C89.0156 9.85938 88.5469 9.79688 88.0781 9.70312C87.6406 9.60938 87.1875 9.5625 86.7188 9.5625C86.0938 9.5625 85.6094 9.78125 85.2656 10.2188C85.1094 10.1562 84.9688 10.0781 84.8438 9.98438C84.75 9.89062 84.6094 9.85938 84.4219 9.89062H84.2812C82.5938 9.89062 80.9375 10.0781 79.3125 10.4531C77.6875 10.7969 76.0781 11.2344 74.4844 11.7656C72.8906 12.2656 71.2969 12.8125 69.7031 13.4062C68.1094 14 66.5156 14.5156 64.9219 14.9531C64.5469 15.4531 64.1562 15.8281 63.75 16.0781C63.3438 16.2969 62.9375 16.4844 62.5312 16.6406C62.1562 16.7969 61.7812 16.9531 61.4062 17.1094C61.0312 17.2656 60.7031 17.5156 60.4219 17.8594C60.1719 18.2031 59.9688 18.6875 59.8125 19.3125C59.6875 19.9062 59.6562 20.7344 59.7188 21.7969C59.5625 21.9844 59.4688 22.1875 59.4375 22.4062C59.4062 22.625 59.375 22.8438 59.3438 23.0625C59.3125 23.25 59.2656 23.4375 59.2031 23.625C59.1406 23.8125 59.0312 23.9844 58.875 24.1406C58.9375 24.4531 58.9844 24.7656 59.0156 25.0781C59.0469 25.3906 59.0625 25.7031 59.0625 26.0156C59.0625 27.3281 58.8438 28.6094 58.4062 29.8594C58.5625 30.1094 58.6406 30.3906 58.6406 30.7031C58.6406 31.0469 58.5938 31.3594 58.5 31.6406C58.4062 31.9219 58.3594 32.2344 58.3594 32.5781C58.3594 32.9219 58.4219 33.2031 58.5469 33.4219C58.7344 33.4219 58.8438 33.4844 58.875 33.6094H59.1562C59.7188 33.6094 60.2031 33.4688 60.6094 33.1875C61.0156 32.9062 61.4531 32.7656 61.9219 32.7656C62.0156 32.7656 62.125 32.7969 62.25 32.8594C62.375 32.9219 62.4844 32.9531 62.5781 32.9531C62.7969 32.9531 62.8906 32.875 62.8594 32.7188C62.8281 32.5625 62.9062 32.4531 63.0938 32.3906L64.7812 32.1094C65.8438 31.9219 66.8438 31.7031 67.7812 31.4531C68.75 31.1719 69.7031 30.7656 70.6406 30.2344C70.8594 30.3281 71.1094 30.375 71.3906 30.375C71.6406 30.375 71.9062 30.3438 72.1875 30.2812C72.4688 30.1875 72.7344 30.1406 72.9844 30.1406C73.2031 30.1406 73.375 30.1719 73.5 30.2344C73.6875 30.1094 73.9219 30.0156 74.2031 29.9531C74.4844 29.8594 74.6406 29.6719 74.6719 29.3906H74.7656C74.8906 29.3906 74.9844 29.4219 75.0469 29.4844C75.1094 29.5469 75.2031 29.5781 75.3281 29.5781H75.5156C76.1719 29.2656 76.7656 29.0312 77.2969 28.875C78.1719 28.6562 79.1094 28.4688 80.1094 28.3125C81.1094 28.125 82 27.8125 82.7812 27.375C83.6875 27.375 84.5625 27.2344 85.4062 26.9531C86.2812 26.6406 87.1562 26.4844 88.0312 26.4844C88.4375 26.4844 88.8125 26.5469 89.1562 26.6719C89.4688 26.4531 89.8281 26.2969 90.2344 26.2031C90.6719 26.1094 91.0312 25.9375 91.3125 25.6875C91.5 25.7188 91.6875 25.75 91.875 25.7812C92.0938 25.7812 92.3125 25.7812 92.5312 25.7812C93.4688 25.7812 94.3594 25.6562 95.2031 25.4062C96.0781 25.125 96.9688 24.9219 97.875 24.7969C98.0938 25.0469 98.2344 25.3125 98.2969 25.5938C98.3906 25.8438 98.4375 26.1094 98.4375 26.3906Z" fill="#6B7366"/>
</svg>
